<?xml version="1.0" encoding="UTF-8" standalone="no"?>
<svg width="30px" height="30px" viewBox="0 0 30 30" version="1.1" xmlns="http://www.w3.org/2000/svg" xmlns:xlink="http://www.w3.org/1999/xlink" xmlns:sketch="http://www.bohemiancoding.com/sketch/ns">
    <!-- Generator: Sketch 3.4.3 (16044) - http://www.bohemiancoding.com/sketch -->
    <title>Oval 1</title>
    <desc>Created with Sketch.</desc>
    <defs></defs>
    <g id="Page-1" stroke="none" stroke-width="1" fill="none" fill-rule="evenodd" sketch:type="MSPage">
        <g id="Mouse-over-classic-Copy-4" sketch:type="MSArtboardGroup" transform="translate(-597.000000, -237.000000)" fill="#FFFFFF">
            <g id="Group" sketch:type="MSLayerGroup" transform="translate(11.000000, 164.000000)">
                <path d="M593.125833,100.769499 C588.849471,98.1269153 586,93.3962224 586,88 C586,79.7157288 592.715729,73 601,73 C609.284271,73 616,79.7157288 616,88 C616,96.2842712 609.284271,103 601,103 C600.602433,103 600.208478,102.984533 599.818705,102.954168 L601.294248,98.9001475 C601.53839,98.229371 602.353369,97.3307877 603.072028,96.5376313 C603.483487,96.084793 603.838124,95.6930806 603.973534,95.4628585 C604.626806,94.3503261 606.619382,91.0083405 606.639486,90.9745108 C607.048971,90.3872873 607.706081,89.3832803 608.111129,88.7279737 L610.32376,85.1332534 C610.728496,84.4761288 610.759135,83.651436 610.391993,83.2955161 C610.327468,83.2333185 610.251894,83.1860905 610.167617,83.1554162 C609.761926,83.0077568 609.222909,83.2471447 608.825979,83.7510437 L606.601706,86.8526322 C606.344451,87.1794777 606.05674,87.4475172 605.778237,87.7069784 C605.546524,87.9228443 605.307361,88.1464682 605.09319,88.3957449 L604.865977,88.6614566 C604.838329,88.6932708 604.799796,88.7128454 604.757887,88.7156087 C604.715977,88.718372 604.67624,88.7131608 604.639906,88.6999364 C604.560574,88.6710618 604.432843,88.5805026 604.467485,88.2980215 C604.475021,88.2632694 604.864388,86.6269009 603.831758,86.1909163 L603.786629,86.1737604 C603.228509,85.9706212 602.783988,86.3196362 602.290628,86.9065223 C602.216422,86.9946763 602.064638,87.0029781 601.988101,86.9751208 C601.836807,86.9125067 601.769976,86.7783759 601.80507,86.6224218 C601.981107,85.8350672 601.656494,85.0987387 601.033231,84.8718895 L600.985248,84.855886 C600.442834,84.6818371 599.78832,84.9047521 599.395829,85.3997976 C599.381301,85.4176396 599.364408,85.431943 599.344448,85.4419646 C599.266493,85.516337 599.132664,85.6197982 598.987114,85.5668224 C598.831244,85.5100905 598.794161,85.3203186 598.780128,85.1822745 L598.762586,85.0110583 C598.74565,84.8415233 598.723854,84.6458723 598.699053,84.4357361 C598.621048,83.7489926 598.523683,82.894023 598.539273,82.3260738 L598.778525,78.2899311 C598.795137,77.7004416 598.523916,77.1980462 598.104036,77.0452223 C597.985575,77.0021061 597.860948,76.9886406 597.733342,77.0047683 C597.13972,77.0811192 596.629895,77.7540457 596.572021,78.5371739 L596.131502,82.6179023 C596.100965,83.0309186 596.110529,83.6080231 596.12004,84.165874 C596.127112,84.5799178 596.133799,84.9709354 596.12401,85.2868099 L596.085627,86.5883267 C596.071913,87.0267003 595.931963,87.3409727 595.668984,87.5223291 C595.523975,87.6243992 595.035982,87.9751216 594.508228,88.4671952 C594.450294,88.5213425 594.391638,88.5727921 594.334156,88.6236948 C593.944602,88.9688558 593.60866,89.2670615 593.576331,90.2569444 C593.559286,90.7218617 593.580824,91.1944917 593.647841,91.8886794 C593.717819,92.6175441 593.933168,93.0747697 594.161685,93.5587003 C594.487211,94.2483707 595.126228,95.27346 594.695926,96.4557036 C594.692487,96.4651528 593.654904,99.3158902 593.125833,100.769499 Z" id="Oval-1" sketch:type="MSShapeGroup"></path>
            </g>
        </g>
    </g>
</svg>