<?xml version="1.0" encoding="UTF-8"?>
<svg width="36px" height="51px" viewBox="0 0 36 51" version="1.1" xmlns="http://www.w3.org/2000/svg" xmlns:xlink="http://www.w3.org/1999/xlink">
    <!-- Generator: Sketch 43.1 (39012) - http://www.bohemiancoding.com/sketch -->
    <title>Fill 2 Copy</title>
    <desc>Created with Sketch.</desc>
    <defs></defs>
    <g id="Embed" stroke="none" stroke-width="1" fill="none" fill-rule="evenodd">
        <g id="Mouse-over-classic-Copy-45" transform="translate(-299.000000, -144.000000)" fill="#FFFFFF">
            <g id="Imported-Layers-Copy" transform="translate(280.000000, 130.000000)">
                <path d="M52.1447754,34.9263916 C50.9310049,34.6450597 50.4357685,35.4793701 49.7244873,35.3099365 C49.2218516,35.1902042 49.444093,34.0124691 48.0567627,33.1422555 C46.7703939,32.3336081 45.4790158,32.8865193 44.7319005,33.4962608 C44.2841063,33.8609217 44.3138009,33.9733983 44.0358597,33.1422555 C43.9610294,32.9113825 43.6859265,31.908376 43.0498047,31.3077393 C42.3057861,30.6052246 40.7979736,30.5031738 40,30.9812012 C39.2020264,31.4592285 38.5447398,32.4484526 38.1955317,32.4768677 C37.8855204,32.501731 37.8368213,32.2199475 37.81069,32.0660322 C37.6408371,31.0501911 37.5125566,27.6545822 37.5125566,26.8767179 C37.5125566,25.6667066 38.079129,17.7258599 37.9140271,16.7822405 C37.7144796,15.6302435 37.499491,14.791997 36.3354638,14.3598501 C35.1987557,13.935991 34.1475679,14.6582091 33.7472851,15.2667666 C33.1355769,16.1949944 32.7281674,21.8330311 32.5250566,23.7913076 C32.3278846,25.7164331 32.1259615,28.8492019 32.1758484,32.2554665 C32.2245475,35.661731 31.2196833,42.3357362 30.9690611,41.4288198 C30.7184389,40.5207194 29.5152149,38.5482353 28.6125,37.4116298 C27.7097851,36.2762083 25.6988688,34.707456 23.5394796,33.8893368 C21.3789027,33.0724016 19.7718326,33.4358786 19.5212104,34.6151068 C19.3299774,35.5137355 20.3585973,36.0512552 20.9263575,36.4336755 C21.6663462,36.9285725 23.3375566,38.2025178 23.8388009,39.250326 C24.3400452,40.2933983 24.6417421,41.5637917 24.9446267,42.0196178 C25.2451357,42.4730761 25.6905543,43.6238891 26.2844457,45.1062121 C26.9543552,46.786257 27.726414,47.8624803 29.1291855,49.3448033 C32.0178733,52.3982465 33.4218326,54.6773773 33.8993213,56.0957662 C34.1119344,56.7220832 34.8626131,58.5809067 34.721267,60.7522967 L34.7894559,62.6126103 C34.8298595,63.7148919 35.7618484,64.6084676 36.8644547,64.6084676 L47.5904661,64.6084676 C48.6960527,64.6084676 49.5850714,63.7072064 49.5914445,62.6040401 C49.5914445,62.6040401 49.5733032,62.9368286 49.5923077,62.5866699 C49.6113122,62.2365112 49.7244873,61.2894287 49.7244873,60.1022949 C49.7244873,58.9151611 50.0620117,57.72229 51.3876953,55.5698242 C52.7133789,53.4173584 52.9324951,52.744751 53.269043,51.3917236 C53.6055908,50.0386963 54.5482178,42.162532 54.5482178,40.5397949 C54.5482178,38.7769775 54.270752,37.8416748 54.0335693,36.8725586 C53.7963867,35.9034424 53.5041464,35.2414713 52.1447754,34.9263916 Z" id="Fill-2-Copy"></path>
            </g>
        </g>
    </g>
</svg>