<?xml version="1.0" encoding="UTF-8" standalone="no"?>
<svg width="15px" height="18px" viewBox="0 0 15 18" version="1.1" xmlns="http://www.w3.org/2000/svg" xmlns:xlink="http://www.w3.org/1999/xlink" xmlns:sketch="http://www.bohemiancoding.com/sketch/ns">
    <!-- Generator: Sketch 3.4 (15588) - http://www.bohemiancoding.com/sketch -->
    <title>Imported Layers</title>
    <desc>Created with Sketch.</desc>
    <defs></defs>
    <g id="Page-1" stroke="none" stroke-width="1" fill="none" fill-rule="evenodd" sketch:type="MSPage">
        <g id="Mouse-over-classic-Copy" sketch:type="MSArtboardGroup" transform="translate(-22.000000, -244.000000)" fill="#FFFFFF">
            <g id="Group" sketch:type="MSLayerGroup" transform="translate(11.000000, 164.000000)">
                <g id="Imported-Layers" transform="translate(11.000000, 80.000000)" sketch:type="MSShapeGroup">
                    <path d="M1.272,0.083 L3.709,0.058 C4.4,0.058 4.961,0.614 4.961,1.301 L4.961,15.727 C4.961,16.413 4.4,16.969 3.709,16.969 L1.202,16.993 C0.55,16.993 0.02,16.438 0.02,15.752 L0.02,1.325 C0.02,0.639 0.581,0.083 1.272,0.083" id="Fill-1"></path>
                    <path d="M9.359,0.042 L11.777,0.042 C12.429,0.042 12.958,0.597 12.958,1.284 L12.958,15.752 C12.958,16.438 12.429,16.993 11.777,16.993 L9.359,16.993 C8.62,16.993 8.021,16.438 8.021,15.752 L8.021,1.284 C8.021,0.597 8.62,0.042 9.359,0.042" id="Fill-2"></path>
                </g>
            </g>
        </g>
    </g>
</svg>