<svg width="32" height="32" viewBox="0 0 32 32" fill="none" xmlns="http://www.w3.org/2000/svg">
<path fill-rule="evenodd" clip-rule="evenodd" d="M16 32C24.8365 32 32 24.8365 32 16C32 7.16345 24.8365 0 16 0C7.16345 0 0 7.16345 0 16C0 24.8365 7.16345 32 16 32ZM17.2929 10.2929C16.9023 10.6834 16.9023 11.3166 17.2929 11.7071L20.5858 15H9C8.44769 15 8 15.4477 8 16C8 16.5522 8.44769 17 9 17H20.5858L17.2929 20.2929C16.9023 20.6834 16.9023 21.3166 17.2929 21.7071C17.6834 22.0976 18.3166 22.0976 18.7071 21.7071L23.7071 16.7071C24.0977 16.3166 24.0977 15.6834 23.7071 15.2929L18.7071 10.2929C18.3166 9.90234 17.6834 9.90234 17.2929 10.2929Z" transform="translate(32) scale(-1 1)" fill="white"/>
</svg>