<?xml version="1.0" encoding="UTF-8" standalone="no"?>
<svg width="14px" height="14px" viewBox="0 0 14 14" version="1.1" xmlns="http://www.w3.org/2000/svg" xmlns:xlink="http://www.w3.org/1999/xlink" xmlns:sketch="http://www.bohemiancoding.com/sketch/ns">
    <!-- Generator: Sketch 3.3.1 (12005) - http://www.bohemiancoding.com/sketch -->
    <title>Imported Layers</title>
    <desc>Created with Sketch.</desc>
    <defs></defs>
    <g id="Page-1" stroke="none" stroke-width="1" fill="none" fill-rule="evenodd" sketch:type="MSPage">
        <g id="Embed-3-Copy-5" sketch:type="MSArtboardGroup" transform="translate(-361.000000, -34.000000)" fill-opacity="0.3" fill="#000000">
            <g id="Group-Copy" sketch:type="MSLayerGroup" transform="translate(142.000000, 25.000000)">
                <path d="M224.580842,9 C221.497526,9 219,11.4971579 219,14.5804737 C219.000368,17.6641579 221.497158,20.1616842 224.581211,20.1616842 C225.737684,20.1616842 226.812368,19.8091053 227.703947,19.2078421 L230.686684,22.1898421 C231.101526,22.6043158 231.773895,22.6043158 232.188368,22.1902105 C232.603211,21.7757368 232.602474,21.103 232.188,20.6885263 L232.189105,20.6877895 L229.204158,17.7061579 C229.810211,16.8142105 230.162421,15.7398947 230.162421,14.5804737 C230.162421,11.4971579 227.663789,9.00036842 224.580842,9 L224.580842,9 Z M228.038474,14.5804737 C228.035526,16.4907368 226.490368,18.0358947 224.581211,18.0384737 C222.670947,18.0355263 221.126526,16.4903684 221.124316,14.5804737 C221.126526,12.6716842 222.671316,11.1272632 224.580842,11.1246842 C226.49,11.1272632 228.035158,12.6720526 228.038474,14.5804737 L228.038474,14.5804737 Z" id="Imported-Layers" sketch:type="MSShapeGroup"></path>
            </g>
        </g>
    </g>
</svg>