<svg width="24" height="24" viewBox="0 0 24 24" fill="none" xmlns="http://www.w3.org/2000/svg">
<path fill-rule="evenodd" clip-rule="evenodd" d="M7 3.41418V3.47046V3.67566V3.73083V3.74512V3.74878V3.75V12C7 12.5522 7.44775 13 8 13C8.55225 13 9 12.5522 9 12V3.74988V3.74878V3.74512V3.73083V3.67566V3.47046V3.41418L11.2928 5.70715C11.6835 6.09766 12.3165 6.09766 12.7072 5.70715C13.0977 5.31653 13.0977 4.68347 12.7072 4.29285L8.70715 0.292847C8.52612 0.111816 8.27612 0 8 0C7.72388 0 7.47388 0.111816 7.29285 0.292847L3.29285 4.29285C2.90234 4.68347 2.90234 5.31653 3.29285 5.70715C3.68347 6.09766 4.31653 6.09766 4.70715 5.70715L7 3.41418ZM15 10C15.5522 10 16 10.4478 16 11V11.0059V11.0116V11.0175V11.0233V11.0292V11.0352V11.041V11.0469V11.0529V11.0588V11.0648V11.0708V11.0768V11.0828V11.0887V11.0948V11.101V11.1069V11.113V11.1191V11.1252V11.1315V11.1376V11.1437V11.1499V11.1561V11.1624V11.1686V11.1748V11.181V11.1873V11.1936V11.1998V11.2062V11.2124V11.2188V11.2251V11.2316V11.2379V11.2443V11.2507V11.2571V11.2635V11.27V11.2765V11.283V11.2894V11.2959V11.3024V11.309V11.3154V11.322V11.3286V11.3352V11.3418V11.3484V11.355V11.3617V11.3683V11.375V11.3816V11.3883V11.395V11.4017V11.4084V11.4152V11.4219V11.4287V11.4354V11.4423V11.4491V11.4558V11.4626V11.4695V11.4764V11.4833V11.4901V11.4969V11.5039V11.5109V11.5177V11.5247V11.5316V11.5386V11.5455V11.5525V11.5596V11.5665V11.5736V11.5806V11.5876V11.5947V11.6017V11.6088V11.6158V11.623V11.6301V11.6372V11.6444V11.6515V11.6587V11.6658V11.673V11.6802V11.6874V11.6946V11.7018V11.7091V11.7163V11.7235V11.7308V11.738V11.7454V11.7527V11.76V11.7673V11.7747V11.782V11.7893V11.7966V11.8041V11.8114V11.8188V11.8262V11.8336V11.8411V11.8484V11.8558V11.8633V11.8707V11.8783V11.8857V11.8932V11.9008V11.9082V11.9158V11.9232V11.9308V11.9384V11.9459V11.9535V11.9611V11.9686V11.9762V11.9838V11.9913V11.999V12.0066V12.0143V12.0219V12.0295V12.0372V12.0449V12.0526V12.0603V12.068V12.0757V12.0834V12.0911V12.0989V12.1066V12.1143V12.1221V12.1298V12.1376V12.1454V12.1532V12.161V12.1687V12.1765V12.1843V12.1923V12.2001V12.2079V12.2157V12.2236V12.2314V12.2394V12.2472V12.2551V12.2629V12.2709V12.2788V12.2867V12.2947V12.3026V12.3105V12.3185V12.3264V12.3344V12.3423V12.3503V12.3583V12.3663V12.3743V12.3823V12.3903V12.3983V12.4064V12.4143V12.4224V12.4304V12.4385V12.4465V12.4546V12.4626V12.4707V12.4788V12.4868V12.495V12.5031V12.5111V12.5193V12.5273V12.5355V12.5436V12.5518V12.5599V12.568V12.5762V12.5844V12.5925V12.6007V12.6089V12.6169V12.6252V12.6334V12.6416V12.6498V12.658V12.6661V12.6744V12.6826V12.6908V12.6991V12.7073V12.7155V12.7238V12.7321V12.7402V12.7485V12.7567V12.765V12.7733V12.7816V12.7898V12.7981V12.8064V12.8147V12.823V12.8313V12.8396V12.8479V12.8562V12.8645V12.8728V12.8812V12.8895V12.8978V12.9061V12.9146V12.9229V12.9312V12.9396V12.9479V12.9563V12.9646V12.973V12.9813V12.9897V12.998V13.0065V13.0149V13.0232V13.0316V13.04V13.0483V13.0568V13.0652V13.0736V13.082V13.0903V13.0988V13.1072V13.1156V13.124V13.1324V13.1409V13.1493V13.1577V13.1661V13.1746V13.183V13.1914V13.1998V13.2083V13.2168V13.2252V13.2336V13.2421V13.2505V13.259V13.2675V13.2759V13.2843V13.2928V13.3013V13.3097V13.3182V13.3267V13.3351V13.3436V13.3521V13.3605V13.369V13.3774V13.3859V13.3944V13.4028V13.4114V13.4198V13.4283V13.4368V13.4452V13.4537V13.4622V13.4707V13.4791V13.4877V13.4961V13.5046V13.5131V13.5216V13.53V13.5386V13.547V13.5555V13.564V13.5725V13.5809V13.5895V13.5979V13.6064V13.6149V13.6234V13.6318V13.6404V13.6488V13.6573V13.6658V13.6743V13.6827V13.6913V13.6997V13.7083V13.7167V13.7251V13.7336V13.7421V13.7506V13.759V13.7676V13.776V13.7844V13.793V13.8014V13.8099V13.8184V13.8268V13.8353V13.8438V13.8522V13.8607V13.8691V13.8776V13.886V13.8945V13.903V13.9114V13.9198V13.9282V13.9368V13.9452V13.9536V13.962V13.9705V13.9789V13.9873V13.9957V14.0042V14.0126V14.021V14.0294V14.0378V14.0463V14.0547V14.0631V14.0715V14.08V14.0884V14.0967V14.1051V14.1135V14.1219V14.1302V14.1387V14.1471V14.1554V14.1638V14.1722V14.1805V14.189V14.1973V14.2057V14.214V14.2223V14.2307V14.239V14.2474V14.2557V14.264V14.2723V14.2808V14.2891V14.2974V14.3057V14.314V14.3223V14.3306V14.3389V14.3472V14.3555V14.3638V14.3721V14.3802V14.3885V14.3969V14.4052V14.4133V14.4216V14.4298V14.4381V14.4464V14.4546V14.4628V14.4711V14.4792V14.4874V14.4957V14.5039V14.5121V14.5203V14.5284V14.5366V14.5448V14.553V14.5612V14.5693V14.5775V14.5857V14.5938V14.6019V14.6101V14.6182V14.6263V14.6344V14.6426V14.6506V14.6588V14.6669V14.6749V14.683V14.6912V14.6992V14.7073V14.7153V14.7234V14.7314V14.7394V14.7474V14.7555V14.7635V14.7715V14.7795V14.7875V14.7955V14.8035V14.8115V14.8195V14.8274V14.8353V14.8434V14.8513V14.8593V14.8672V14.8751V14.8829V14.8909V14.8988V14.9067V14.9146V14.9225V14.9303V14.9382V14.946V14.9539V14.9617V14.9696V14.9774V14.9852V14.993V15.0009C16 16.6582 14.6564 18 13 18H3C1.34375 18 0 16.6583 0 15.0009V14.9929V14.985V14.9771V14.9691V14.9612V14.9531V14.9452V14.9373V14.9292V14.9213V14.9132V14.9053V14.8972V14.8892V14.8811V14.873V14.8651V14.8571V14.8489V14.8408V14.8328V14.8247V14.8167V14.8085V14.8004V14.7922V14.7842V14.776V14.7679V14.7598V14.7516V14.7435V14.7354V14.7272V14.719V14.7108V14.7026V14.6945V14.6863V14.678V14.6698V14.6616V14.6533V14.6451V14.637V14.6287V14.6205V14.6122V14.6039V14.5957V14.5874V14.5791V14.5708V14.5626V14.5543V14.546V14.5377V14.5294V14.5211V14.5127V14.5044V14.4961V14.4878V14.4795V14.4711V14.4628V14.4543V14.446V14.4377V14.4293V14.4209V14.4126V14.4042V14.3959V14.3875V14.379V14.3706V14.3623V14.3539V14.3455V14.337V14.3286V14.3202V14.3118V14.3033V14.2949V14.2865V14.2781V14.2695V14.2611V14.2527V14.2443V14.2357V14.2273V14.2189V14.2103V14.2019V14.1935V14.1849V14.1765V14.168V14.1595V14.151V14.1426V14.134V14.1255V14.1171V14.1085V14.1V14.0916V14.083V14.0745V14.0659V14.0575V14.049V14.0404V14.0319V14.0233V14.0148V14.0063V13.9978V13.9893V13.9807V13.9722V13.9636V13.9551V13.9465V13.938V13.9294V13.9209V13.9124V13.9038V13.8951V13.8866V13.8781V13.8695V13.861V13.8524V13.8439V13.8352V13.8267V13.8181V13.8096V13.801V13.7924V13.7838V13.7753V13.7667V13.7582V13.7495V13.741V13.7324V13.7239V13.7152V13.7067V13.6981V13.6896V13.6809V13.6724V13.6638V13.6552V13.6466V13.6381V13.6295V13.6208V13.6123V13.6038V13.5952V13.5865V13.578V13.5695V13.5609V13.5522V13.5437V13.5352V13.5266V13.5179V13.5094V13.5009V13.4923V13.4836V13.4751V13.4666V13.458V13.4495V13.4409V13.4323V13.4237V13.4152V13.4066V13.3981V13.3895V13.381V13.3724V13.3639V13.3553V13.3468V13.3383V13.3296V13.3212V13.3126V13.3041V13.2955V13.287V13.2784V13.2699V13.2614V13.2528V13.2443V13.2358V13.2273V13.2188V13.2102V13.2017V13.1932V13.1847V13.1761V13.1677V13.1592V13.1508V13.1422V13.1337V13.1252V13.1167V13.1083V13.0997V13.0913V13.0829V13.0743V13.0659V13.0575V13.049V13.0405V13.0321V13.0237V13.0151V13.0067V12.9983V12.9899V12.9814V12.973V12.9646V12.9562V12.9478V12.9393V12.9309V12.9226V12.9142V12.9058V12.8973V12.889V12.8806V12.8722V12.8639V12.8555V12.8472V12.8387V12.8304V12.8221V12.8137V12.8054V12.7971V12.7887V12.7804V12.7721V12.7638V12.7555V12.7472V12.7389V12.7306V12.7223V12.714V12.7058V12.6975V12.6892V12.6809V12.6727V12.6644V12.6562V12.6479V12.6398V12.6316V12.6233V12.6151V12.6069V12.5988V12.5906V12.5823V12.5741V12.5659V12.5579V12.5497V12.5415V12.5333V12.5251V12.5171V12.5089V12.5009V12.4927V12.4846V12.4764V12.4684V12.4603V12.4523V12.4442V12.436V12.428V12.4199V12.412V12.4039V12.3959V12.3878V12.3799V12.3718V12.3638V12.3558V12.3479V12.3398V12.3319V12.324V12.316V12.308V12.3V12.2922V12.2843V12.2764V12.2684V12.2605V12.2527V12.2448V12.2369V12.229V12.2212V12.2134V12.2054V12.1976V12.1898V12.182V12.1742V12.1664V12.1587V12.1509V12.1431V12.1354V12.1276V12.1199V12.1122V12.1044V12.0967V12.089V12.0813V12.0736V12.0659V12.0582V12.0507V12.043V12.0353V12.0277V12.0201V12.0125V12.0049V11.9973V11.9897V11.9822V11.9746V11.967V11.9595V11.952V11.9445V11.937V11.9294V11.922V11.9146V11.907V11.8995V11.8921V11.8846V11.8773V11.8699V11.8624V11.8551V11.8477V11.8403V11.833V11.8257V11.8182V11.8109V11.8037V11.7964V11.7891V11.7817V11.7745V11.7672V11.76V11.7528V11.7456V11.7384V11.7312V11.724V11.7168V11.7096V11.7025V11.6953V11.6882V11.6812V11.674V11.6669V11.6598V11.6527V11.6458V11.6387V11.6316V11.6246V11.6177V11.6106V11.6036V11.5967V11.5897V11.5828V11.5759V11.569V11.562V11.5552V11.5483V11.5414V11.5345V11.5277V11.5209V11.5142V11.5073V11.5005V11.4938V11.4871V11.4802V11.4735V11.4668V11.4601V11.4534V11.4468V11.4401V11.4335V11.4268V11.4202V11.4136V11.407V11.4004V11.3938V11.3873V11.3807V11.3743V11.3678V11.3612V11.3547V11.3483V11.3419V11.3354V11.329V11.3226V11.3162V11.3098V11.3035V11.2971V11.2908V11.2845V11.2782V11.2719V11.2656V11.2594V11.2532V11.2469V11.2407V11.2345V11.2284V11.2222V11.2161V11.21V11.2037V11.1976V11.1917V11.1855V11.1794V11.1735V11.1675V11.1614V11.1554V11.1494V11.1436V11.1376V11.1316V11.1257V11.1199V11.114V11.1082V11.1023V11.0964V11.0907V11.0848V11.0791V11.0734V11.0676V11.0619V11.0562V11.0504V11.0448V11.0391V11.0334V11.0278V11.0222V11.0166V11.0111V11.0055V11C0 10.4478 0.447754 10 1 10C1.55225 10 2 10.4478 2 11V11.0055V11.0111V11.0166V11.0222V11.0278V11.0334V11.0391V11.0448V11.0504V11.0562V11.0619V11.0676V11.0734V11.0791V11.0848V11.0907V11.0964V11.1023V11.1082V11.114V11.1199V11.1257V11.1316V11.1376V11.1436V11.1494V11.1554V11.1614V11.1675V11.1735V11.1794V11.1855V11.1917V11.1976V11.2037V11.21V11.2161V11.2222V11.2284V11.2345V11.2407V11.2469V11.2532V11.2594V11.2656V11.2719V11.2782V11.2845V11.2908V11.2971V11.3035V11.3098V11.3162V11.3226V11.329V11.3354V11.3419V11.3483V11.3547V11.3612V11.3678V11.3743V11.3807V11.3873V11.3938V11.4004V11.407V11.4136V11.4202V11.4268V11.4335V11.4401V11.4468V11.4534V11.4601V11.4668V11.4735V11.4802V11.4871V11.4938V11.5005V11.5073V11.5142V11.5209V11.5277V11.5345V11.5414V11.5483V11.5552V11.562V11.569V11.5759V11.5828V11.5897V11.5967V11.6036V11.6106V11.6177V11.6246V11.6316V11.6387V11.6458V11.6527V11.6598V11.6669V11.674V11.6812V11.6882V11.6953V11.7025V11.7096V11.7168V11.724V11.7312V11.7384V11.7456V11.7528V11.76V11.7672V11.7745V11.7817V11.7891V11.7964V11.8037V11.8109V11.8182V11.8257V11.833V11.8403V11.8477V11.8551V11.8624V11.8699V11.8773V11.8846V11.8921V11.8995V11.907V11.9146V11.922V11.9294V11.937V11.9445V11.952V11.9595V11.967V11.9746V11.9822V11.9897V11.9973V12.0049V12.0125V12.0201V12.0277V12.0353V12.043V12.0507V12.0582V12.0659V12.0736V12.0813V12.089V12.0967V12.1044V12.1122V12.1199V12.1276V12.1354V12.1431V12.1509V12.1587V12.1664V12.1742V12.182V12.1898V12.1976V12.2054V12.2134V12.2212V12.229V12.2369V12.2448V12.2527V12.2605V12.2684V12.2764V12.2843V12.2922V12.3V12.308V12.316V12.324V12.3319V12.3398V12.3479V12.3558V12.3638V12.3718V12.3799V12.3878V12.3959V12.4039V12.412V12.4199V12.428V12.436V12.4442V12.4523V12.4603V12.4684V12.4764V12.4846V12.4927V12.5009V12.5089V12.5171V12.5251V12.5333V12.5415V12.5497V12.5579V12.5659V12.5741V12.5823V12.5906V12.5988V12.6069V12.6151V12.6233V12.6316V12.6398V12.6479V12.6562V12.6644V12.6727V12.6809V12.6892V12.6975V12.7058V12.714V12.7223V12.7306V12.7389V12.7472V12.7555V12.7638V12.7721V12.7804V12.7887V12.7971V12.8054V12.8137V12.8221V12.8304V12.8387V12.8472V12.8555V12.8639V12.8722V12.8806V12.889V12.8973V12.9058V12.9142V12.9226V12.9309V12.9393V12.9478V12.9562V12.9646V12.973V12.9814V12.9899V12.9983V13.0067V13.0151V13.0237V13.0321V13.0405V13.049V13.0575V13.0659V13.0743V13.0829V13.0913V13.0997V13.1083V13.1167V13.1252V13.1337V13.1422V13.1508V13.1592V13.1677V13.1761V13.1847V13.1932V13.2017V13.2102V13.2188V13.2273V13.2358V13.2443V13.2528V13.2614V13.2699V13.2784V13.287V13.2955V13.3041V13.3126V13.3212V13.3296V13.3383V13.3468V13.3553V13.3639V13.3724V13.381V13.3895V13.3981V13.4066V13.4152V13.4237V13.4323V13.4409V13.4495V13.458V13.4666V13.4751V13.4836V13.4923V13.5009V13.5094V13.5179V13.5266V13.5352V13.5437V13.5522V13.5609V13.5695V13.578V13.5865V13.5952V13.6038V13.6123V13.6208V13.6295V13.6381V13.6466V13.6552V13.6638V13.6724V13.6809V13.6896V13.6981V13.7067V13.7152V13.7239V13.7324V13.741V13.7495V13.7582V13.7667V13.7753V13.7838V13.7924V13.801V13.8096V13.8181V13.8267V13.8352V13.8439V13.8524V13.861V13.8695V13.8781V13.8866V13.8951V13.9038V13.9124V13.9209V13.9294V13.938V13.9465V13.9551V13.9636V13.9722V13.9807V13.9893V13.9978V14.0063V14.0148V14.0233V14.0319V14.0404V14.049V14.0575V14.0659V14.0745V14.083V14.0916V14.1V14.1085V14.1171V14.1255V14.134V14.1426V14.151V14.1595V14.168V14.1765V14.1849V14.1935V14.2019V14.2103V14.2189V14.2273V14.2357V14.2443V14.2527V14.2611V14.2695V14.2781V14.2865V14.2949V14.3033V14.3118V14.3202V14.3286V14.337V14.3455V14.3539V14.3623V14.3706V14.379V14.3875V14.3959V14.4042V14.4126V14.4209V14.4293V14.4377V14.446V14.4543V14.4628V14.4711V14.4795V14.4878V14.4961V14.5044V14.5127V14.5211V14.5294V14.5377V14.546V14.5543V14.5626V14.5708V14.5791V14.5874V14.5957V14.6039V14.6122V14.6205V14.6287V14.637V14.6451V14.6533V14.6616V14.6698V14.678V14.6863V14.6945V14.7026V14.7108V14.719V14.7272V14.7354V14.7435V14.7516V14.7598V14.7679V14.776V14.7842V14.7922V14.8004V14.8085V14.8167V14.8247V14.8328V14.8408V14.8489V14.8571V14.8651V14.873V14.8811V14.8892V14.8972V14.9053V14.9132V14.9213V14.9292V14.9373V14.9452V14.9531V14.9612V14.9691V14.9771V14.985V14.9929V15.0009C2 15.5526 2.44714 16 3 16H13C13.5529 16 14 15.5526 14 15.0009V14.993V14.9852V14.9774V14.9696V14.9617V14.9539V14.946V14.9382V14.9303V14.9225V14.9146V14.9067V14.8988V14.8909V14.8829V14.8751V14.8672V14.8593V14.8513V14.8434V14.8353V14.8274V14.8195V14.8115V14.8035V14.7955V14.7875V14.7795V14.7715V14.7635V14.7555V14.7474V14.7394V14.7314V14.7234V14.7153V14.7073V14.6992V14.6912V14.683V14.6749V14.6669V14.6588V14.6506V14.6426V14.6344V14.6263V14.6182V14.6101V14.6019V14.5938V14.5857V14.5775V14.5693V14.5612V14.553V14.5448V14.5366V14.5284V14.5203V14.5121V14.5039V14.4957V14.4874V14.4792V14.4711V14.4628V14.4546V14.4464V14.4381V14.4298V14.4216V14.4133V14.4052V14.3969V14.3885V14.3802V14.3721V14.3638V14.3555V14.3472V14.3389V14.3306V14.3223V14.314V14.3057V14.2974V14.2891V14.2808V14.2723V14.264V14.2557V14.2474V14.239V14.2307V14.2223V14.214V14.2057V14.1973V14.189V14.1805V14.1722V14.1638V14.1554V14.1471V14.1387V14.1302V14.1219V14.1135V14.1051V14.0967V14.0884V14.08V14.0715V14.0631V14.0547V14.0463V14.0378V14.0294V14.021V14.0126V14.0042V13.9957V13.9873V13.9789V13.9705V13.962V13.9536V13.9452V13.9368V13.9282V13.9198V13.9114V13.903V13.8945V13.886V13.8776V13.8691V13.8607V13.8522V13.8438V13.8353V13.8268V13.8184V13.8099V13.8014V13.793V13.7844V13.776V13.7676V13.759V13.7506V13.7421V13.7336V13.7251V13.7167V13.7083V13.6997V13.6913V13.6827V13.6743V13.6658V13.6573V13.6488V13.6404V13.6318V13.6234V13.6149V13.6064V13.5979V13.5895V13.5809V13.5725V13.564V13.5555V13.547V13.5386V13.53V13.5216V13.5131V13.5046V13.4961V13.4877V13.4791V13.4707V13.4622V13.4537V13.4452V13.4368V13.4283V13.4198V13.4114V13.4028V13.3944V13.3859V13.3774V13.369V13.3605V13.3521V13.3436V13.3351V13.3267V13.3182V13.3097V13.3013V13.2928V13.2843V13.2759V13.2675V13.259V13.2505V13.2421V13.2336V13.2252V13.2168V13.2083V13.1998V13.1914V13.183V13.1746V13.1661V13.1577V13.1493V13.1409V13.1324V13.124V13.1156V13.1072V13.0988V13.0903V13.082V13.0736V13.0652V13.0568V13.0483V13.04V13.0316V13.0232V13.0149V13.0065V12.998V12.9897V12.9813V12.973V12.9646V12.9563V12.9479V12.9396V12.9312V12.9229V12.9146V12.9061V12.8978V12.8895V12.8812V12.8728V12.8645V12.8562V12.8479V12.8396V12.8313V12.823V12.8147V12.8064V12.7981V12.7898V12.7816V12.7733V12.765V12.7567V12.7485V12.7402V12.7321V12.7238V12.7155V12.7073V12.6991V12.6908V12.6826V12.6744V12.6661V12.658V12.6498V12.6416V12.6334V12.6252V12.6169V12.6089V12.6007V12.5925V12.5844V12.5762V12.568V12.5599V12.5518V12.5436V12.5355V12.5273V12.5193V12.5111V12.5031V12.495V12.4868V12.4788V12.4707V12.4626V12.4546V12.4465V12.4385V12.4304V12.4224V12.4143V12.4064V12.3983V12.3903V12.3823V12.3743V12.3663V12.3583V12.3503V12.3423V12.3344V12.3264V12.3185V12.3105V12.3026V12.2947V12.2867V12.2788V12.2709V12.2629V12.2551V12.2472V12.2394V12.2314V12.2236V12.2157V12.2079V12.2001V12.1923V12.1843V12.1765V12.1687V12.161V12.1532V12.1454V12.1376V12.1298V12.1221V12.1143V12.1066V12.0989V12.0911V12.0834V12.0757V12.068V12.0603V12.0526V12.0449V12.0372V12.0295V12.0219V12.0143V12.0066V11.999V11.9913V11.9838V11.9762V11.9686V11.9611V11.9535V11.9459V11.9384V11.9308V11.9232V11.9158V11.9082V11.9008V11.8932V11.8857V11.8783V11.8707V11.8633V11.8558V11.8484V11.8411V11.8336V11.8262V11.8188V11.8114V11.8041V11.7966V11.7893V11.782V11.7747V11.7673V11.76V11.7527V11.7454V11.738V11.7308V11.7235V11.7163V11.7091V11.7018V11.6946V11.6874V11.6802V11.673V11.6658V11.6587V11.6515V11.6444V11.6372V11.6301V11.623V11.6158V11.6088V11.6017V11.5947V11.5876V11.5806V11.5736V11.5665V11.5596V11.5525V11.5455V11.5386V11.5316V11.5247V11.5177V11.5109V11.5039V11.4969V11.4901V11.4833V11.4764V11.4695V11.4626V11.4558V11.4491V11.4423V11.4354V11.4287V11.4219V11.4152V11.4084V11.4017V11.395V11.3883V11.3816V11.375V11.3683V11.3617V11.355V11.3484V11.3418V11.3352V11.3286V11.322V11.3154V11.309V11.3024V11.2959V11.2894V11.283V11.2765V11.27V11.2635V11.2571V11.2507V11.2443V11.2379V11.2316V11.2251V11.2188V11.2124V11.2062V11.1998V11.1936V11.1873V11.181V11.1748V11.1686V11.1624V11.1561V11.1499V11.1437V11.1376V11.1315V11.1252V11.1191V11.113V11.1069V11.101V11.0948V11.0887V11.0828V11.0768V11.0708V11.0648V11.0588V11.0529V11.0469V11.041V11.0352V11.0292V11.0233V11.0175V11.0116V11.0059V11C14 10.4478 14.4478 10 15 10Z" transform="translate(4 3)" fill="#ffffff"/>
</svg>
