<svg width="24" height="24" viewBox="0 0 24 24" fill="none" xmlns="http://www.w3.org/2000/svg">
<path fill-rule="evenodd" clip-rule="evenodd" d="M9.87863 8.46445C9.48813 8.07382 9.48813 7.44077 9.87863 7.05014L12.7071 4.22177C14.2693 2.65964 16.8018 2.65964 18.364 4.22177L19.7782 5.63596C21.3403 7.19809 21.3403 9.73068 19.7782 11.2928L16.9498 14.1213C16.5592 14.5118 15.9261 14.5118 15.5355 14.1213C15.145 13.7307 15.145 13.0976 15.5355 12.707L18.364 9.87863C19.145 9.09763 19.145 7.83127 18.364 7.05014L16.9498 5.63596C16.1687 4.85495 14.9023 4.85495 14.1213 5.63596L11.2929 8.46445C10.9023 8.85495 10.2693 8.85495 9.87863 8.46445ZM8.46445 9.87863C8.07382 9.48813 7.44077 9.48813 7.05014 9.87863L4.22177 12.7071C2.65964 14.2693 2.65964 16.8018 4.22177 18.364L5.63596 19.7782C7.19809 21.3403 9.73068 21.3403 11.2928 19.7782L14.1213 16.9498C14.5118 16.5592 14.5118 15.9261 14.1213 15.5355C13.7307 15.145 13.0976 15.145 12.707 15.5355L9.87863 18.364C9.09763 19.145 7.83127 19.145 7.05014 18.364L5.63596 16.9498C4.85495 16.1687 4.85495 14.9023 5.63596 14.1213L8.46445 11.2929C8.85495 10.9023 8.85495 10.2693 8.46445 9.87863ZM8.11081 14.4748C7.72031 14.8654 7.72031 15.4985 8.11081 15.8891C8.50143 16.2796 9.13449 16.2796 9.52512 15.8891L15.889 9.52512C16.2795 9.13461 16.2795 8.50143 15.889 8.11093C15.4985 7.72043 14.8653 7.72043 14.4748 8.11093L8.11081 14.4748Z" fill="#ffffff"/>
</svg>