<svg width="24" height="24" viewBox="0 0 24 24" fill="none" xmlns="http://www.w3.org/2000/svg">
<rect width="24" height="24" fill="black" fill-opacity="0"/>
<path fill-rule="evenodd" clip-rule="evenodd" d="M8 4H16C17.1046 4 18 4.89539 18 6V19.5823L14.0052 16.0745C12.8759 15.0828 11.187 15.0798 10.0542 16.0676L6 19.6027V6C6 4.89539 6.89539 4 8 4ZM4 6C4 3.79089 5.79089 2 8 2H16C18.2091 2 20 3.79089 20 6V20.3112C20 21.7473 18.3073 22.5137 17.2281 21.566L12.6855 17.5774C12.3091 17.2468 11.7462 17.2458 11.3685 17.5751L6.76758 21.5869C5.68713 22.5289 4 21.7616 4 20.3281V6Z" fill="#ffffff"/>
</svg>