<svg width="24" height="24" viewBox="0 0 24 24" fill="none" xmlns="http://www.w3.org/2000/svg">
<rect width="24" height="24" fill="black" fill-opacity="0"/>
<path fill-rule="evenodd" clip-rule="evenodd" d="M16 4H8C6.89539 4 6 4.89539 6 6V19.6027L10.0542 16.0676C10.1278 16.0034 10.2039 15.9434 10.2819 15.8876C10.0981 16.5605 10 17.2688 10 18C10 18.2491 10.0114 18.4956 10.0337 18.739L6.76758 21.5869C5.68713 22.5289 4 21.7616 4 20.3281V6C4 3.79089 5.79089 2 8 2H16C18.2091 2 20 3.79089 20 6V10.2521C19.3607 10.0875 18.6906 10 18 10V6C18 4.89539 17.1046 4 16 4ZM24 18C24 21.3137 21.3137 24 18 24C14.6863 24 12 21.3137 12 18C12 14.6863 14.6863 12 18 12C21.3137 12 24 14.6863 24 18ZM21.6904 15.2766C22.09 15.658 22.1047 16.291 21.7234 16.6904L17.9052 20.6904C17.7164 20.8882 17.4551 21 17.1818 21C16.9086 21 16.6472 20.8882 16.4585 20.6904L14.2766 18.4048C13.8953 18.0052 13.91 17.3723 14.3096 16.991C14.709 16.6096 15.342 16.6243 15.7234 17.0238L17.1818 18.5518L20.2766 15.3096C20.658 14.91 21.291 14.8953 21.6904 15.2766Z" fill="#ffffff"/>
</svg>