<svg width="36" height="49" viewBox="0 0 36 49" fill="none" xmlns="http://www.w3.org/2000/svg">
<path fill-rule="evenodd" clip-rule="evenodd" d="M19.7193 4.12256C19.8303 2.88599 19.4903 1.82129 18.7879 1.06788C18.093 0.322636 17.1231 -0.0306357 16.1443 0.00207914C14.1402 0.0690957 12.2316 1.68933 11.7575 4.58045C10.9976 9.21448 11.1769 17.0013 11.9357 24.6738C11.2454 24.1924 10.3594 23.7127 9.23553 23.3357C7.56342 22.7748 5.37823 22.5009 3.56598 22.8473C2.65692 23.021 1.75287 23.368 1.07147 24.0038C0.35736 24.6702 -0.0361943 25.5856 0.00262403 26.7003C0.032043 27.5436 0.58551 28.0978 1.08282 28.4332C1.58404 28.7713 2.21783 29.0206 2.81476 29.223C3.19867 29.3533 3.62408 29.4819 4.02972 29.6044L4.03448 29.6059L4.04144 29.608C4.25812 29.6735 4.46881 29.7372 4.66437 29.7984C5.26666 29.9872 5.76959 30.1658 6.14337 30.3595C6.76202 30.6801 7.39203 31.2915 8.05633 32.1605C8.71454 33.0215 9.34259 34.0479 9.99567 35.1252L10.0755 35.2568L10.0765 35.2584C10.6922 36.2745 11.3334 37.3328 12.007 38.2362C12.4523 38.8333 12.9431 39.4073 13.4911 39.8736C13.4341 39.9993 13.4024 40.139 13.4024 40.2861V45.6771C13.4024 46.6262 14.0753 47.4692 15.0436 47.6335C19.7857 48.4384 25.8355 48.4628 29.398 47.6616C30.3237 47.4534 30.9024 46.6246 30.9024 45.7516V40.3825C30.9024 40.3746 30.9022 40.3668 30.9022 40.3591C31.1905 40.1841 31.4562 39.9702 31.6592 39.7046C32.1428 39.0722 32.6481 37.9589 33.1137 36.7136C33.593 35.4318 34.0711 33.8957 34.4737 32.3334C34.8759 30.7724 35.2081 29.1651 35.389 27.7426C35.5648 26.3597 35.6169 25.0187 35.3665 24.0651C35.1852 23.3751 34.7224 22.813 34.2064 22.3654C33.6812 21.9101 33.0203 21.5034 32.3028 21.1395C30.8665 20.4111 29.0628 19.7847 27.3016 19.2708C24.4544 18.4399 21.6052 17.8709 20.3431 17.6357C20.0008 15.8435 19.1478 10.4923 19.7193 4.12256ZM28.9024 41.1108C28.7227 41.1544 28.5383 41.1951 28.3502 41.2332C26.9453 41.5173 25.2231 41.6744 23.48 41.7171C21.7333 41.76 19.9323 41.6887 18.363 41.504C17.2783 41.3763 16.2436 41.1881 15.4024 40.9186V45.6658C19.9411 46.4327 25.6608 46.437 28.9024 45.723V41.1108ZM13.7311 4.90406C14.0822 2.76331 15.3425 2.03003 16.2111 2.00098C16.6688 1.98572 17.0613 2.14893 17.325 2.43164C17.5811 2.70642 17.7957 3.1814 17.7272 3.94385C17.0351 11.6582 18.3487 17.9252 18.5095 18.6532C18.5471 18.8233 18.6326 19.0205 18.8007 19.1901C18.973 19.3638 19.184 19.4601 19.3885 19.4955C19.8709 19.5792 23.3185 20.1918 26.7413 21.1907C28.4575 21.6915 30.1242 22.2772 31.3983 22.9233C32.0358 23.2466 32.5401 23.5678 32.8959 23.8764C33.2609 24.1929 33.3947 24.431 33.4321 24.573C33.5772 25.1258 33.5775 26.1339 33.405 27.4903C33.2376 28.8069 32.925 30.3287 32.5369 31.8343C32.1492 33.3385 31.6916 34.8064 31.2403 36.0132C30.7755 37.2566 30.3558 38.1166 30.0704 38.4898C30.0383 38.5319 29.8875 38.6699 29.4796 38.8391C29.0963 38.9982 28.5821 39.1458 27.9537 39.2728C26.6994 39.5265 25.1013 39.6768 23.431 39.7177C21.7642 39.7585 20.0588 39.6898 18.5967 39.5177C17.098 39.3413 15.9745 39.0689 15.3891 38.7657C14.8373 38.4799 14.2521 37.9015 13.6104 37.0407C12.9958 36.2164 12.3992 35.2322 11.7651 34.1859L11.7635 34.1832L11.706 34.0884C11.0626 33.0269 10.3799 31.907 9.6452 30.9458C8.91644 29.9926 8.07098 29.1058 7.06354 28.5838C6.52216 28.3032 5.87384 28.0816 5.26251 27.89C5.02216 27.8146 4.79071 27.7448 4.56561 27.6769L4.56 27.6752C4.17902 27.5603 3.81586 27.4507 3.45721 27.329C2.8891 27.1363 2.46905 26.9558 2.20111 26.7751C2.07159 26.6877 2.01935 26.6298 2.00067 26.6032C1.98785 26.0601 2.16571 25.7182 2.43597 25.4661C2.74359 25.179 3.24457 24.9449 3.94147 24.8117C5.34137 24.5442 7.1723 24.7531 8.59955 25.2319C10.15 25.752 11.1083 26.4895 11.6669 27.0366C11.9476 27.3114 12.1346 27.5452 12.2565 27.7014L12.2728 27.7224C12.316 27.7785 12.4029 27.8912 12.4742 27.9633C12.497 27.9865 12.5701 28.0601 12.6785 28.127L12.6806 28.1283C12.731 28.1595 13.1662 28.4294 13.6746 28.1661C14.1568 27.9162 14.2072 27.4362 14.213 27.3817L14.2133 27.3786C14.2269 27.2581 14.2158 27.1597 14.2119 27.1261C13.2224 18.6706 12.9297 9.79126 13.7311 4.90406ZM1.99139 26.5862C1.992 26.5862 1.99408 26.5896 1.99628 26.5965C1.992 26.5897 1.99091 26.5862 1.99139 26.5862Z" fill="white"/>
</svg>