<svg width="44" height="44" viewBox="0 0 44 44" fill="none" xmlns="http://www.w3.org/2000/svg">
<path fill-rule="evenodd" clip-rule="evenodd" d="M22 44C34.1503 44 44 34.1503 44 22C44 9.84973 34.1503 0 22 0C9.84973 0 0 9.84973 0 22C0 34.1503 9.84973 44 22 44ZM15 12C13.3431 12 12 13.3431 12 15V29C12 30.6569 13.3431 32 15 32H22.1297V24.1177H20.0909V21.4442H22.1297V19.4185C22.1297 17.5322 23.2679 15.6364 26.1729 15.6364C27.0621 15.6364 27.7061 15.6986 28.0204 15.7289C28.1218 15.7388 28.1889 15.7452 28.2188 15.7452L28.2727 18.5334C28.2727 18.5334 27.3857 18.5251 26.4178 18.5251C25.3703 18.5251 25.2025 18.9919 25.2025 19.7669V19.8984V21.4442H28.2188V24.1177H25.2025V32H29C30.6569 32 32 30.6569 32 29V15C32 13.3431 30.6569 12 29 12H15Z" fill="white"/>
</svg>