<svg width="44" height="44" viewBox="0 0 44 44" fill="none" xmlns="http://www.w3.org/2000/svg">
<path fill-rule="evenodd" clip-rule="evenodd" d="M22 44C34.1503 44 44 34.1503 44 22C44 9.84973 34.1503 0 22 0C9.84973 0 0 9.84973 0 22C0 34.1503 9.84973 44 22 44ZM19.8787 17.0502C19.4882 17.4407 19.4882 18.0739 19.8787 18.4644C20.2693 18.8549 20.9023 18.8549 21.293 18.4644L24.1213 15.636C24.9023 14.8549 26.1687 14.8549 26.9498 15.636L28.364 17.0502C29.145 17.8312 29.145 19.0976 28.364 19.8786L28.2391 20.0035C29.0118 20.0262 29.757 20.1584 30.4596 20.3853C31.2916 18.8666 31.0645 16.9222 29.7782 15.636L28.364 14.2218C26.8019 12.6597 24.2693 12.6597 22.7072 14.2218L19.8787 17.0502ZM20.0035 28.239C20.0262 29.0117 20.1583 29.7569 20.3851 30.4595C18.8665 31.2915 16.9222 31.0644 15.636 29.7781L14.2218 28.3639C12.6597 26.8018 12.6597 24.2691 14.2218 22.707L17.0502 19.8786C17.4408 19.4881 18.0739 19.4881 18.4645 19.8786C18.855 20.2691 18.855 20.9023 18.4645 21.2928L15.636 24.1212C14.855 24.9023 14.855 26.1686 15.636 26.9497L17.0502 28.3639C17.8313 29.145 19.0977 29.145 19.8787 28.3639L20.0035 28.239ZM24.7072 20.707C22.9357 21.5081 21.5081 22.9357 20.7069 24.7072L19.5251 25.889C19.1345 26.2795 18.5015 26.2795 18.1108 25.889C17.7203 25.4985 17.7203 24.8653 18.1108 24.4748L24.4749 18.1108C24.8654 17.7203 25.4985 17.7203 25.889 18.1108C26.2795 18.5014 26.2795 19.1345 25.889 19.5251L24.7072 20.707ZM28 34C31.3137 34 34 31.3138 34 28C34 24.6863 31.3137 22 28 22C24.6863 22 22 24.6863 22 28C22 31.3138 24.6863 34 28 34ZM31.7234 26.6905C32.1047 26.291 32.09 25.658 31.6904 25.2767C31.291 24.8953 30.658 24.9101 30.2766 25.3095L27.1818 28.5518L25.7234 27.0238C25.342 26.6243 24.709 26.6096 24.3096 26.991C23.91 27.3723 23.8953 28.0053 24.2766 28.4048L26.4585 30.6905C26.6472 30.8882 26.9086 31 27.1818 31C27.4551 31 27.7164 30.8882 27.9052 30.6905L31.7234 26.6905Z" fill="white"/>
</svg>