<svg width="44" height="44" viewBox="0 0 44 44" fill="none" xmlns="http://www.w3.org/2000/svg">
<path fill-rule="evenodd" clip-rule="evenodd" d="M22 44C34.1503 44 44 34.1503 44 22C44 9.84973 34.1503 0 22 0C9.84973 0 0 9.84973 0 22C0 34.1503 9.84973 44 22 44ZM19.8787 17.0502C19.4882 17.4407 19.4882 18.0739 19.8787 18.4644C20.2693 18.8549 20.9023 18.8549 21.293 18.4644L24.1213 15.636C24.9023 14.8549 26.1687 14.8549 26.9498 15.636L28.364 17.0502C29.145 17.8312 29.145 19.0975 28.364 19.8786L25.5355 22.707C25.145 23.0975 25.145 23.7307 25.5355 24.1212C25.9261 24.5117 26.5592 24.5117 26.9498 24.1212L29.7782 21.2928C31.3403 19.7307 31.3403 17.198 29.7782 15.636L28.364 14.2217C26.8019 12.6596 24.2693 12.6596 22.7072 14.2217L19.8787 17.0502ZM17.0502 19.8786C17.4408 19.4881 18.0739 19.4881 18.4645 19.8786C18.855 20.2691 18.855 20.9023 18.4645 21.2928L15.636 24.1212C14.855 24.9023 14.855 26.1686 15.636 26.9496L17.0502 28.3639C17.8313 29.1449 19.0977 29.1449 19.8787 28.3639L22.707 25.5354C23.0977 25.1449 23.7307 25.1449 24.1213 25.5354C24.5118 25.926 24.5118 26.5591 24.1213 26.9496L21.2928 29.7781C19.7307 31.3402 17.1981 31.3402 15.636 29.7781L14.2218 28.3639C12.6597 26.8018 12.6597 24.2691 14.2218 22.707L17.0502 19.8786ZM18.1108 25.889C17.7203 25.4985 17.7203 24.8653 18.1108 24.4748L24.4749 18.1108C24.8654 17.7203 25.4985 17.7203 25.889 18.1108C26.2795 18.5013 26.2795 19.1345 25.889 19.525L19.5251 25.889C19.1345 26.2795 18.5015 26.2795 18.1108 25.889Z" fill="white"/>
</svg>