<svg width="44" height="44" viewBox="0 0 44 44" fill="none" xmlns="http://www.w3.org/2000/svg">
<path fill-rule="evenodd" clip-rule="evenodd" d="M22 44C34.1503 44 44 34.1503 44 22C44 9.84973 34.1503 0 22 0C9.84973 0 0 9.84973 0 22C0 34.1503 9.84973 44 22 44ZM30.0256 16.7188C30.897 16.6138 31.7274 16.3805 32.5 16.0353C31.9224 16.9057 31.192 17.6701 30.3501 18.282C30.3585 18.4682 30.3627 18.6555 30.3627 18.8436C30.3627 24.5792 26.0291 31.1931 18.1044 31.1931C15.6713 31.1931 13.4067 30.4744 11.5 29.2428C11.837 29.283 12.18 29.3035 12.5277 29.3035C14.5464 29.3035 16.4041 28.6097 17.8785 27.4455C15.9933 27.4106 14.4021 26.1556 13.8539 24.4313C14.1169 24.4819 14.3868 24.5092 14.6645 24.5092C15.0574 24.5092 15.438 24.4561 15.7996 24.357C13.8286 23.9581 12.3434 22.2039 12.3434 20.1009C12.3434 20.0826 12.3434 20.0645 12.3439 20.0464C12.9247 20.3714 13.5891 20.5667 14.2953 20.5892C13.1393 19.8109 12.3787 18.4824 12.3787 16.9765C12.3787 16.1811 12.5912 15.4355 12.962 14.7945C15.0869 17.4205 18.2616 19.1484 21.8423 19.3295C21.7688 19.0117 21.7307 18.6804 21.7307 18.3403C21.7307 15.9433 23.6599 14 26.0391 14C27.2783 14 28.3981 14.5271 29.1839 15.3706C30.1653 15.1761 31.0873 14.8148 31.9199 14.3174C31.5981 15.3309 30.9149 16.1815 30.0256 16.7188Z" fill="white"/>
</svg>