<svg width="44" height="44" viewBox="0 0 44 44" fill="none" xmlns="http://www.w3.org/2000/svg">
<path fill-rule="evenodd" clip-rule="evenodd" d="M22 44C34.1503 44 44 34.1503 44 22C44 9.84973 34.1503 0 22 0C9.84973 0 0 9.84973 0 22C0 34.1503 9.84973 44 22 44ZM17.5 22C17.5 23.2427 16.4926 24.25 15.25 24.25C14.0074 24.25 13 23.2427 13 22C13 20.7573 14.0074 19.75 15.25 19.75C16.4926 19.75 17.5 20.7573 17.5 22ZM24.25 22C24.25 23.2427 23.2426 24.25 22 24.25C20.7574 24.25 19.75 23.2427 19.75 22C19.75 20.7573 20.7574 19.75 22 19.75C23.2426 19.75 24.25 20.7573 24.25 22ZM28.75 24.25C29.9926 24.25 31 23.2427 31 22C31 20.7573 29.9926 19.75 28.75 19.75C27.5074 19.75 26.5 20.7573 26.5 22C26.5 23.2427 27.5074 24.25 28.75 24.25Z" fill="white"/>
</svg>