<svg height="472pt" viewBox="-40 0 471 472" width="472pt" xmlns="http://www.w3.org/2000/svg"><path d="m363.699219 0h-336.398438c-14.53125 0-26.800781 11.398438-26.800781 25.40625v405.703125c0 .128906.222656.265625.222656.398437 0 22.328126 19.175782 40.492188 42.476563 40.492188h296.035156c14.53125 0 26.265625-11.398438 26.265625-25.398438v-39.644531c14-.933593 25-11.941406 25-25.339843v-356.21875c0-14-12.269531-25.398438-26.800781-25.398438zm-14.199219 446.601562c0 5.179688-4.558594 9.398438-10.265625 9.398438h-296.035156c-14.472657 0-26.25-10.988281-26.25-24.488281v-.316407c.175781-13.363281 11.886719-24.195312 26.25-24.195312h306.300781zm25-64.984374c0 5.1875-5.09375 9.386718-10.800781 9.386718h-320.5c-9.910157 0-18.699219 3.304688-26.699219 8.796875v-374.394531c0-5.183594 5.09375-9.40625 10.800781-9.40625h336.398438c5.707031 0 10.800781 4.21875 10.800781 9.398438zm0 0"/><path d="m336.988281 163h-24.757812c-1.773438-6-5.324219-10.5625-10.332031-14.410156-7.34375-5.480469-16.277344-8.410156-25.441407-8.347656-1.253906 0-2.492187-.011719-3.730469.089843-9.949218-9.449219-25.226562-14-40.476562-12.042969-7.140625-9.523437-18.058594-16.8125-31.320312-20.765624-15.105469-4.476563-31.21875-4.21875-46.171876.742187-17.402343 5.839844-30.339843 17.695313-35.410156 31.929687-16.648437-1.042968-32.433594 7.347657-37.929687 20.726563-.304688.664063-.527344 1.359375-.671875 2.078125h-24.734375c-2.019531-.089844-3.984375.675781-5.414063 2.105469-1.429687 1.433593-2.191406 3.398437-2.097656 5.421875v35.324218c0 4.417969 3.09375 8.148438 7.511719 8.148438h3.507812l1.582031 31.78125c.550782 21.453125 9.492188 41.832031 24.90625 56.761719 12.117188 11.925781 27.6875 19.730469 44.492188 22.308593v23.226563c-.011719 2.109375.816406 4.132813 2.308594 5.621094 1.488281 1.488281 3.511718 2.316406 5.617187 2.300781h116.148438c2.105469.015625 4.128906-.8125 5.617187-2.300781 1.492188-1.488281 2.320313-3.511719 2.308594-5.621094v-23.226563c16.808594-2.589843 32.378906-10.410156 44.492188-22.347656 15.410156-14.914062 24.34375-35.28125 24.886718-56.722656l1.601563-31.78125h3.507812c4.417969 0 7.511719-3.730469 7.511719-8.148438v-35.324218c.09375-2.023438-.667969-3.988282-2.097656-5.421875-1.429688-1.429688-3.394532-2.195313-5.414063-2.105469zm-213.53125-5.835938c2.210938.46875 4.515625.003907 6.371094-1.285156 1.855469-1.292968 3.089844-3.292968 3.414063-5.53125 1.675781-11.621094 11.871093-21.945312 26.609374-26.894531 23.445313-7.871094 51.699219.183594 61.699219 17.609375 1.761719 3.066406 5.332031 4.613281 8.777344 3.800781 12.519531-2.957031 26.480469.8125 33.199219 8.96875 1.855468 2.25 4.785156 3.3125 7.652344 2.773438 1.726562-.3125 3.480468-.472657 5.242187-.476563 5.65625-.007812 11.171875 1.796875 15.726563 5.152344.691406.4375 1.273437 1.027344 1.703124 1.722656h-194.773437c5.222656-6.003906 15.128906-8.0625 24.378906-5.839844zm-58.957031 21.835938h264v19h-264zm82 161v-14h100v14zm169.414062-94.917969c0 .0625 0 .089844-.007812.152344-.925781 36.011719-30.371094 64.734375-66.394531 64.765625h-106.023438c-36.023437-.046875-65.460937-28.765625-66.398437-64.777344 0-.0625 0-.066406-.007813-.128906l-1.542969-31.09375h241.921876zm0 0"/><path d="m195.5 99c4.417969 0 8-3.582031 8-8v-45c0-4.417969-3.582031-8-8-8s-8 3.582031-8 8v45c0 4.417969 3.582031 8 8 8zm0 0"/><path d="m251.5 99c4.417969 0 8-3.582031 8-8v-31c0-4.417969-3.582031-8-8-8s-8 3.582031-8 8v31c0 4.417969 3.582031 8 8 8zm0 0"/><path d="m140.5 99c4.417969 0 8-3.582031 8-8v-31c0-4.417969-3.582031-8-8-8s-8 3.582031-8 8v31c0 4.417969 3.582031 8 8 8zm0 0"/></svg>